<?xml version="1.0" encoding="UTF-8" standalone="no"?>
<!DOCTYPE svg PUBLIC "-//W3C//DTD SVG 1.1//EN"
 "http://www.w3.org/Graphics/SVG/1.1/DTD/svg11.dtd">
<!-- Generated by graphviz version 5.0.0 (20220707.1540)
 -->
<!-- Title: dependencies Pages: 1 -->
<svg width="1463pt" height="247pt"
 viewBox="0.00 0.00 1463.00 246.80" xmlns="http://www.w3.org/2000/svg" xmlns:xlink="http://www.w3.org/1999/xlink">
<g id="graph0" class="graph" transform="scale(1 1) rotate(0) translate(4 242.8)">
<title>dependencies</title>
<polygon fill="white" stroke="transparent" points="-4,4 -4,-242.8 1459,-242.8 1459,4 -4,4"/>
<text text-anchor="middle" x="727.5" y="-8.2" font-family="sans-serif" font-size="14.00">dependencies</text>
<g id="clust1" class="cluster">
<title>cluster_AppModule</title>
<polygon fill="none" stroke="black" stroke-dasharray="1,5" points="8,-32.8 8,-230.8 1447,-230.8 1447,-32.8 8,-32.8"/>
</g>
<g id="clust2" class="cluster">
<title>cluster_AppModule_declarations</title>
<polygon fill="none" stroke="black" points="16,-40.8 16,-92.8 1439,-92.8 1439,-40.8 16,-40.8"/>
</g>
<g id="clust15" class="cluster">
<title>cluster_AppModule_bootstrap</title>
<polygon fill="none" stroke="black" points="742,-170.8 742,-222.8 866,-222.8 866,-170.8 742,-170.8"/>
</g>
<!-- AppComponent -->
<g id="node1" class="node">
<title>AppComponent</title>
<polygon fill="#ffffb3" stroke="black" points="1430.94,-84.8 1325.06,-84.8 1325.06,-48.8 1430.94,-48.8 1430.94,-84.8"/>
<text text-anchor="middle" x="1378" y="-62.6" font-family="Times,serif" font-size="14.00">AppComponent</text>
</g>
<!-- AppModule -->
<g id="node11" class="node">
<title>AppModule</title>
<polygon fill="#8dd3c7" stroke="black" points="845.66,-149.8 842.66,-153.8 821.66,-153.8 818.66,-149.8 762.34,-149.8 762.34,-113.8 845.66,-113.8 845.66,-149.8"/>
<text text-anchor="middle" x="804" y="-127.6" font-family="Times,serif" font-size="14.00">AppModule</text>
</g>
<!-- AppComponent&#45;&gt;AppModule -->
<g id="edge1" class="edge">
<title>AppComponent&#45;&gt;AppModule</title>
<path fill="none" stroke="black" d="M1378,-84.81C1378,-107.29 1378,-142.8 1378,-142.8 1378,-142.8 855.74,-142.8 855.74,-142.8"/>
<polygon fill="black" stroke="black" points="855.74,-139.3 845.74,-142.8 855.74,-146.3 855.74,-139.3"/>
</g>
<!-- ButtonComponent -->
<g id="node2" class="node">
<title>ButtonComponent</title>
<polygon fill="#ffffb3" stroke="black" points="1307.95,-84.8 1188.05,-84.8 1188.05,-48.8 1307.95,-48.8 1307.95,-84.8"/>
<text text-anchor="middle" x="1248" y="-62.6" font-family="Times,serif" font-size="14.00">ButtonComponent</text>
</g>
<!-- ButtonComponent&#45;&gt;AppModule -->
<g id="edge2" class="edge">
<title>ButtonComponent&#45;&gt;AppModule</title>
<path fill="none" stroke="black" d="M1248,-84.93C1248,-105.37 1248,-135.8 1248,-135.8 1248,-135.8 855.77,-135.8 855.77,-135.8"/>
<polygon fill="black" stroke="black" points="855.77,-132.3 845.77,-135.8 855.77,-139.3 855.77,-132.3"/>
</g>
<!-- HeaderComponent -->
<g id="node3" class="node">
<title>HeaderComponent</title>
<polygon fill="#ffffb3" stroke="black" points="1169.75,-84.8 1048.25,-84.8 1048.25,-48.8 1169.75,-48.8 1169.75,-84.8"/>
<text text-anchor="middle" x="1109" y="-62.6" font-family="Times,serif" font-size="14.00">HeaderComponent</text>
</g>
<!-- HeaderComponent&#45;&gt;AppModule -->
<g id="edge3" class="edge">
<title>HeaderComponent&#45;&gt;AppModule</title>
<path fill="none" stroke="black" d="M1109,-85.07C1109,-103.36 1109,-128.8 1109,-128.8 1109,-128.8 855.77,-128.8 855.77,-128.8"/>
<polygon fill="black" stroke="black" points="855.77,-125.3 845.77,-128.8 855.77,-132.3 855.77,-125.3"/>
</g>
<!-- HomeComponent -->
<g id="node4" class="node">
<title>HomeComponent</title>
<polygon fill="#ffffb3" stroke="black" points="1029.55,-84.8 914.45,-84.8 914.45,-48.8 1029.55,-48.8 1029.55,-84.8"/>
<text text-anchor="middle" x="972" y="-62.6" font-family="Times,serif" font-size="14.00">HomeComponent</text>
</g>
<!-- HomeComponent&#45;&gt;AppModule -->
<g id="edge4" class="edge">
<title>HomeComponent&#45;&gt;AppModule</title>
<path fill="none" stroke="black" d="M972,-84.81C972,-100.85 972,-121.8 972,-121.8 972,-121.8 855.96,-121.8 855.96,-121.8"/>
<polygon fill="black" stroke="black" points="855.96,-118.3 845.96,-121.8 855.96,-125.3 855.96,-118.3"/>
</g>
<!-- KeysPipe -->
<g id="node5" class="node">
<title>KeysPipe</title>
<polygon fill="#ffffb3" stroke="black" points="895.66,-84.8 826.34,-84.8 826.34,-48.8 895.66,-48.8 895.66,-84.8"/>
<text text-anchor="middle" x="861" y="-62.6" font-family="Times,serif" font-size="14.00">KeysPipe</text>
</g>
<!-- KeysPipe&#45;&gt;AppModule -->
<g id="edge5" class="edge">
<title>KeysPipe&#45;&gt;AppModule</title>
<path fill="none" stroke="black" d="M836,-84.91C836,-84.91 836,-103.79 836,-103.79"/>
<polygon fill="black" stroke="black" points="832.5,-103.79 836,-113.79 839.5,-103.79 832.5,-103.79"/>
</g>
<!-- LoggerComponent -->
<g id="node6" class="node">
<title>LoggerComponent</title>
<polygon fill="#ffffb3" stroke="black" points="807.76,-84.8 686.24,-84.8 686.24,-48.8 807.76,-48.8 807.76,-84.8"/>
<text text-anchor="middle" x="747" y="-62.6" font-family="Times,serif" font-size="14.00">LoggerComponent</text>
</g>
<!-- LoggerComponent&#45;&gt;AppModule -->
<g id="edge6" class="edge">
<title>LoggerComponent&#45;&gt;AppModule</title>
<path fill="none" stroke="black" d="M785.02,-84.91C785.02,-84.91 785.02,-103.79 785.02,-103.79"/>
<polygon fill="black" stroke="black" points="781.52,-103.79 785.02,-113.79 788.52,-103.79 781.52,-103.79"/>
</g>
<!-- PushNotificationComponent -->
<g id="node7" class="node">
<title>PushNotificationComponent</title>
<polygon fill="#ffffb3" stroke="black" points="668.21,-84.8 491.79,-84.8 491.79,-48.8 668.21,-48.8 668.21,-84.8"/>
<text text-anchor="middle" x="580" y="-62.6" font-family="Times,serif" font-size="14.00">PushNotificationComponent</text>
</g>
<!-- PushNotificationComponent&#45;&gt;AppModule -->
<g id="edge7" class="edge">
<title>PushNotificationComponent&#45;&gt;AppModule</title>
<path fill="none" stroke="black" d="M580,-84.81C580,-100.85 580,-121.8 580,-121.8 580,-121.8 752.13,-121.8 752.13,-121.8"/>
<polygon fill="black" stroke="black" points="752.13,-125.3 762.13,-121.8 752.13,-118.3 752.13,-125.3"/>
</g>
<!-- SearchEngineComponent -->
<g id="node8" class="node">
<title>SearchEngineComponent</title>
<polygon fill="#ffffb3" stroke="black" points="473.58,-84.8 314.42,-84.8 314.42,-48.8 473.58,-48.8 473.58,-84.8"/>
<text text-anchor="middle" x="394" y="-62.6" font-family="Times,serif" font-size="14.00">SearchEngineComponent</text>
</g>
<!-- SearchEngineComponent&#45;&gt;AppModule -->
<g id="edge8" class="edge">
<title>SearchEngineComponent&#45;&gt;AppModule</title>
<path fill="none" stroke="black" d="M394,-85.07C394,-103.36 394,-128.8 394,-128.8 394,-128.8 752.05,-128.8 752.05,-128.8"/>
<polygon fill="black" stroke="black" points="752.05,-132.3 762.05,-128.8 752.05,-125.3 752.05,-132.3"/>
</g>
<!-- VideoCallComponent -->
<g id="node9" class="node">
<title>VideoCallComponent</title>
<polygon fill="#ffffb3" stroke="black" points="296.38,-84.8 157.62,-84.8 157.62,-48.8 296.38,-48.8 296.38,-84.8"/>
<text text-anchor="middle" x="227" y="-62.6" font-family="Times,serif" font-size="14.00">VideoCallComponent</text>
</g>
<!-- VideoCallComponent&#45;&gt;AppModule -->
<g id="edge9" class="edge">
<title>VideoCallComponent&#45;&gt;AppModule</title>
<path fill="none" stroke="black" d="M227,-84.93C227,-105.37 227,-135.8 227,-135.8 227,-135.8 752.04,-135.8 752.04,-135.8"/>
<polygon fill="black" stroke="black" points="752.04,-139.3 762.04,-135.8 752.04,-132.3 752.04,-139.3"/>
</g>
<!-- VideoComponent -->
<g id="node10" class="node">
<title>VideoComponent</title>
<polygon fill="#ffffb3" stroke="black" points="139.55,-84.8 24.45,-84.8 24.45,-48.8 139.55,-48.8 139.55,-84.8"/>
<text text-anchor="middle" x="82" y="-62.6" font-family="Times,serif" font-size="14.00">VideoComponent</text>
</g>
<!-- VideoComponent&#45;&gt;AppModule -->
<g id="edge10" class="edge">
<title>VideoComponent&#45;&gt;AppModule</title>
<path fill="none" stroke="black" d="M82,-84.81C82,-107.29 82,-142.8 82,-142.8 82,-142.8 752.33,-142.8 752.33,-142.8"/>
<polygon fill="black" stroke="black" points="752.33,-146.3 762.33,-142.8 752.33,-139.3 752.33,-146.3"/>
</g>
<!-- AppComponent  -->
<g id="node12" class="node">
<title>AppComponent </title>
<polygon fill="#80b1d3" stroke="black" points="858.44,-214.8 749.56,-214.8 749.56,-178.8 858.44,-178.8 858.44,-214.8"/>
<text text-anchor="middle" x="804" y="-192.6" font-family="Times,serif" font-size="14.00">AppComponent </text>
</g>
<!-- AppModule&#45;&gt;AppComponent  -->
<g id="edge11" class="edge">
<title>AppModule&#45;&gt;AppComponent </title>
<path fill="none" stroke="black" stroke-dasharray="1,5" d="M804,-149.91C804,-149.91 804,-168.79 804,-168.79"/>
<polygon fill="black" stroke="black" points="800.5,-168.79 804,-178.79 807.5,-168.79 800.5,-168.79"/>
</g>
</g>
</svg>
